PathFileType	4	(X/Y/Z)	C:/Users/beibeiliu/ov580/test_trc/User1\sequence.9_training_dense_right.trc
DataRate	CameraRate	NumFrames	NumMarkers	Units	OrigDataRate	OrigDataStartFrame	OrigNumFrames
120	120	12	19	mm	120	40	314
Frame#	Time	ThumbCMC			ThumbMCP			ThumbIP			ThumbTip			IndexMCP			IndexPIP			IndexTip			MiddleMCP			MiddlePIP			MiddleTip			RingMCP			RingPIP			RingTip			PinkyMCP			PinkyPIP			PinkyTip			BackHand1			BackHand2			BackHand3	
		X0	Y0	Z0	X1	Y1	Z1	X2	Y2	Z2	X3	Y3	Z3	X4	Y4	Z4	X5	Y5	Z5	X6	Y6	Z6	X7	Y7	Z7	X8	Y8	Z8	X9	Y9	Z9	X10	Y10	Z10	X11	Y11	Z11	X12	Y12	Z12	X13	Y13	Z13	X14	Y14	Z14	X15	Y15	Z15	X16	Y16	Z16	X17	Y17	Z17	X18	Y18	Z18	
39	0.325	213.419	74.8714	27.9744	232.397	93.6719	12.1698	249.955	104.813	-2.0416	266.474	116.036	-3.20253	210.415	68.4455	-58.7477	215.129	67.4217	-85.5884	215.357	69.0426	-113.583	185.622	52.6993	-74.0907	183.886	51.4628	-102.287	181.413	50.9272	-132.296	153.382	52.1238	-70.9282	152.528	49.9182	-94.7578	149.242	49.746	-120.665	127.006	61.4289	-51.3356	112.171	62.7777	-65.3359	101.375	58.4796	-86.0745	156.452	44.2925	-14.0841	153.345	36.2837	18.6343	191.831	47.2867	2.50078	
40	0.333333	210.994	69.6554	26.7717	229.58	87.7584	16.7188	251.299	97.2651	4.64781	268.831	105.913	-1.39496	212.211	59.665	-57.4635	214.016	58.3365	-84.5151	216.681	59.0093	-114.582	182.258	45.8698	-70.8897	186.538	45.4746	-96.6016	185.825	41.9006	-129.101	153.374	48.0106	-66.2594	154.138	44.5792	-93.9275	149.677	42.6707	-117.777	123.523	58.6299	-50.6362	112.187	60.3154	-67.2359	102.563	55.4973	-86.8676	157.252	41.8267	-14.0082	151.106	32.7155	17.9696	185.445	44.3001	4.87714	
41	0.341667	206.963	65.8801	28.632	229.436	82.3705	21.5062	251.012	89.8987	4.54898	272.711	97.9541	1.77416	215.325	52.679	-55.5355	218.55	50.2727	-82.6217	222.407	50.132	-107.212	187.114	39.4269	-71.9843	186.822	36.9306	-97.3708	187.37	32.9447	-128.413	156.053	42.3749	-69.6744	158.282	38.7738	-91.5348	153.875	35.8417	-120.771	126.16	56.0333	-50.4562	117.587	57.9181	-73.169	106.957	53.2146	-88.5963	154.738	37.0477	-11.7722	148.501	33.9005	15.8683	187.121	41.0066	8.11762	
42	0.35	205.489	63.2605	29.4178	227.779	79.3397	22.3781	253.72	85.2012	8.7402	274.986	91.4493	6.71146	215.641	45.5049	-56.1736	220.882	42.9364	-77.8297	226.055	40.9746	-103.663	188.205	32.9958	-69.8919	191.396	29.8216	-91.751	195.891	23.7139	-122.199	163.738	38.1385	-66.7753	163.16	31.8062	-92.6076	164.721	29.0625	-114.942	128.738	52.4803	-52.7205	121.197	53.2532	-69.8626	112.948	47.8961	-92.879	155.851	34.4776	-10.8334	146.756	31.4856	16.2572	187.118	38.2009	7.16947	
43	0.358333	206.98	63.528	34.213	227.197	77.9957	23.4504	251.441	83.1161	12.9526	270.722	89.1913	10.1583	217.227	41.3568	-47.474	230.728	35.0907	-74.9111	234.46	32.2446	-96.8291	193.514	30.0162	-61.1064	202.574	22.7116	-87.9424	205.981	15.6529	-114.551	166.909	31.7482	-62.6672	169.986	24.6376	-91.6997	167.377	20.5861	-113.704	132.164	47.6131	-55.1605	128.515	48.676	-73.5161	119.695	43.9151	-94.6834	157.709	33.0741	-8.59706	147.551	30.1244	18.5614	182.783	36.6429	13.1918	
44	0.366667	204.078	64.3435	31.8666	226.56	77.9345	25.972	251.117	82.8271	15.5393	272.49	88.8889	12.8026	224.612	35.7583	-46.162	233.98	31.1927	-66.5535	237.101	24.4229	-94.2764	199.315	24.5394	-59.7176	204.266	15.9185	-85.3559	211.581	7.043	-111.598	170.673	26.9792	-64.3596	175.17	18.0334	-89.2542	174.258	13.8321	-111.754	140.761	44.6413	-55.5835	131.151	44.7736	-75.7523	129.13	38.5132	-97.5257	159.772	29.6013	-10.8673	145.608	32.7055	22.7199	185.433	36.8324	17.079	
45	0.375	204.203	65.7022	34.6745	230.361	78.5458	27.0421	255.485	82.6495	18.7896	276.413	89.6448	15.8541	223.605	34.717	-39.4629	238.676	28.5852	-62.3527	245.915	20.5135	-89.586	203.955	21.272	-54.6591	211.968	13.2541	-77.5998	216.786	2.12008	-107.408	175.741	25.2378	-57.3108	180.001	13.9118	-85.6515	181.879	6.63868	-108.082	140.684	40.525	-56.7031	139.373	40.5821	-72.7416	129.268	32.1527	-95.3287	162.948	31.1757	-6.30081	144.268	30.7489	23.9614	190.046	36.7584	17.8787	
46	0.383333	207.432	68.9601	37.8758	229.164	81.7687	28.5844	257.28	87.8858	18.5222	271.598	95.726	15.4862	231.65	35.8051	-35.6831	241.047	26.6687	-59.6611	250.435	18.2654	-87.2622	207.285	19.8717	-51.3682	218.521	9.78266	-75.7053	224.529	-0.791876	-102.737	181.048	21.6771	-54.8454	186.778	9.83614	-81.9232	190.043	1.54491	-104.943	143.798	36.1421	-57.0892	139.793	35.2826	-76.9021	140.584	26.0537	-95.2929	162.839	28.8613	-9.85327	148.76	29.521	21.038	188.141	36.8145	18.948	
47	0.391667	202.993	73.2496	38.8573	230.644	89.9711	30.912	253.882	97.5934	21.2155	270.782	105.656	11.6538	236.269	40.3449	-31.6238	246.36	28.7784	-57.2082	259.411	23.6643	-78.1403	212.328	19.3492	-50.2249	226.885	9.05878	-74.1578	238.007	-1.56087	-99.026	185.767	20.4303	-52.7297	191.86	6.68867	-80.1532	198.59	-0.231175	-99.9164	151.37	33.3083	-55.203	151.266	30.3341	-73.6835	148.838	18.4514	-92.1221	166.344	27.6302	-4.2553	153.069	31.6799	27.0431	190.629	41.0598	24.4273	
48	0.4	205.944	80.9952	39.2622	228.096	99.709	31.2602	252.153	108.913	17.2363	265.217	119.962	12.5248	242.026	42.9925	-34.5538	255.171	38.495	-50.1713	263.134	29.4649	-74.7733	219.714	22.559	-47.4195	235.544	14.2963	-68.1456	247.756	3.19339	-94.2411	195.787	20.4305	-50.8767	201.608	8.95845	-72.5312	209.025	-3.35411	-99.7433	157.032	31.2318	-51.8494	152.032	25.7881	-70.6761	156.192	14.1168	-89.595	171.124	30.3704	-1.62188	157.54	30.8526	25.2336	195.439	45.1427	24.7464	
49	0.408333	204.659	87.2252	35.221	227.803	108.472	24.0021	245.357	121.409	15.4521	261.367	133.452	6.30563	242.088	53.5494	-32.2054	259.789	45.6091	-55.3134	271.327	38.1923	-77.3615	226.707	32.3179	-41.6	240.574	17.9849	-69.2092	253.514	10.9677	-91.1646	199.109	21.9479	-51.009	212.068	12.5438	-70.1073	219.849	0.261435	-95.2176	165.326	30.4287	-49.9371	158.839	23.8839	-69.6021	163.728	10.7448	-86.0357	178.018	32.3629	-2.66284	163.992	36.2356	25.9563	198.535	50.1337	25.1805	
50	0.416667	206.197	98.787	33.7969	220.527	122.673	23.5564	236.343	135.39	10.914	252.212	150.736	2.21019	247.377	65.7382	-32.731	262.731	60.2026	-53.3774	273.249	53.6391	-75.0165	234.604	39.5893	-45.2046	247.869	33.2188	-64.8211	258.176	19.9973	-91.1502	205.756	27.0695	-48.8884	218.445	18.2147	-68.5589	228.307	6.8785	-93.4226	170.876	30.3918	-50.3425	171.71	22.8668	-68.4546	168.945	8.82501	-85.0282	187.78	37.9975	-2.99761	171.926	37.5458	27.0186	200.44	58.3514	24.4954	
